# xmcd
#
# Track frame offsets:
#	180
#	16583
#	33968
#	65890
#	89619
#	101075
#	128151
#	151155
#	164683
#	182019
#	198659
#	213514
#	239404
#
# Disc length: 3676 seconds
#
# Revision: 1
# Processed by: cddbd v1.4PL0 Copyright (c) Steve Scherf et al.
# Submitted via: audiograbber 1.81.03
#
DISCID=b50e5a0d
DTITLE=Schau-Pau - In The Mood
DYEAR=1997
DGENRE=Blues
TTITLE0=Locomotive Blues
TTITLE1=Talk To Your Daughter
TTITLE2=In The Mood
TTITLE3=Sweet Home Chicago
TTITLE4=Come On In My Kitchen
TTITLE5=The Thrill Is Gone
TTITLE6=I Wish You Would
TTITLE7=My Babe
TTITLE8=One Kind Favor
TTITLE9=Politician
TTITLE10=Kasia Blues
TTITLE11=Boogie Chillun
TTITLE12=Meet Me In My Own Hometown
EXTD=
EXTT0=
EXTT1=
EXTT2=
EXTT3=
EXTT4=
EXTT5=
EXTT6=
EXTT7=
EXTT8=
EXTT9=
EXTT10=
EXTT11=
EXTT12=
PLAYORDER=
